<?xml version="1.0" encoding="UTF-8"?> <svg xmlns="http://www.w3.org/2000/svg" width="31" height="25" viewBox="0 0 31 25" fill="none"> <g clip-path="url(#clip0)"> <path d="M30.3892 23.6826V23.7443H30.447C30.4579 23.7445 30.4686 23.7418 30.478 23.7365C30.4818 23.7338 30.4848 23.7303 30.4868 23.7261C30.4889 23.722 30.4898 23.7175 30.4896 23.7129C30.4898 23.7084 30.4889 23.7039 30.4868 23.6999C30.4848 23.6959 30.4818 23.6924 30.478 23.6899C30.4687 23.6843 30.4579 23.6816 30.447 23.682H30.3892V23.6826ZM30.4476 23.639C30.4724 23.6375 30.497 23.6446 30.5171 23.659C30.5251 23.6656 30.5315 23.674 30.5358 23.6835C30.54 23.6929 30.5419 23.7033 30.5414 23.7136C30.5418 23.7226 30.5402 23.7315 30.5368 23.7397C30.5335 23.748 30.5284 23.7555 30.5219 23.7616C30.5064 23.775 30.4869 23.7831 30.4664 23.7846L30.5439 23.8725H30.4842L30.4129 23.7852H30.3898V23.8725H30.3399V23.6391H30.4484L30.4476 23.639ZM30.4321 23.953C30.4583 23.9533 30.4842 23.948 30.5082 23.9376C30.5314 23.9277 30.5524 23.9135 30.5702 23.8958C30.5881 23.8781 30.6024 23.8572 30.6122 23.8341C30.6326 23.7852 30.6326 23.7303 30.6122 23.6814C30.6022 23.6584 30.588 23.6375 30.5702 23.6197C30.5524 23.602 30.5314 23.5878 30.5082 23.5779C30.4841 23.5681 30.4582 23.5631 30.4321 23.5634C30.4056 23.5632 30.3793 23.5681 30.3546 23.5779C30.331 23.5876 30.3094 23.6018 30.2912 23.6197C30.2638 23.6477 30.2453 23.6831 30.2379 23.7215C30.2306 23.7599 30.2347 23.7996 30.2498 23.8356C30.2593 23.8588 30.2734 23.8798 30.2912 23.8973C30.3095 23.9152 30.331 23.9294 30.3546 23.9391C30.3791 23.9496 30.4055 23.9548 30.4321 23.9546V23.953ZM30.4321 23.5073C30.5002 23.5072 30.5657 23.5338 30.6143 23.5813C30.6377 23.6041 30.6563 23.6313 30.6691 23.6614C30.6824 23.6922 30.6892 23.7254 30.6892 23.7589C30.6892 23.7924 30.6824 23.8256 30.6691 23.8565C30.656 23.8863 30.6374 23.9135 30.6143 23.9365C30.5905 23.9592 30.5628 23.9775 30.5326 23.9905C30.5008 24.0039 30.4666 24.0108 30.4321 24.0106C30.3972 24.0108 30.3626 24.004 30.3304 23.9905C30.2999 23.9778 30.2719 23.9595 30.2481 23.9365C30.225 23.9126 30.2066 23.8846 30.194 23.8539C30.1808 23.823 30.174 23.7898 30.174 23.7563C30.174 23.7228 30.1808 23.6896 30.194 23.6587C30.2068 23.6287 30.2255 23.6015 30.2489 23.5787C30.2724 23.5553 30.3004 23.537 30.3312 23.5247C30.3634 23.5112 30.398 23.5044 30.4329 23.5046L30.4321 23.5073ZM6.69852 22.606C6.69852 22.161 6.99148 21.7955 7.47027 21.7955C7.92783 21.7955 8.23659 22.1453 8.23659 22.606C8.23659 23.0668 7.92783 23.4166 7.47027 23.4166C6.99148 23.4166 6.69852 23.051 6.69852 22.606ZM8.75816 22.606V21.3397H8.20497V21.6482C8.02951 21.4202 7.76338 21.2772 7.40145 21.2772C6.68845 21.2772 6.1289 21.8337 6.1289 22.6066C6.1289 23.3796 6.68814 23.9361 7.40145 23.9361C7.76322 23.9361 8.02951 23.7929 8.20497 23.5651V23.8725H8.75754V22.606H8.75816ZM27.4499 22.606C27.4499 22.161 27.7429 21.7955 28.2218 21.7955C28.6798 21.7955 28.9881 22.1453 28.9881 22.606C28.9881 23.0668 28.6798 23.4166 28.2218 23.4166C27.743 23.4166 27.4499 23.051 27.4499 22.606ZM29.5102 22.606V20.3232H28.9565V21.6482C28.7811 21.4202 28.5149 21.2772 28.153 21.2772C27.44 21.2772 26.8805 21.8337 26.8805 22.6066C26.8805 23.3796 27.4397 23.9361 28.153 23.9361C28.5149 23.9361 28.7811 23.7929 28.9565 23.5651V23.8725H29.5102V22.606ZM15.624 21.7694C15.9805 21.7694 16.2095 21.9918 16.2679 22.3835H14.9479C15.007 22.0179 15.23 21.7694 15.6242 21.7694H15.624ZM15.6352 21.2758C14.8897 21.2758 14.3681 21.8157 14.3681 22.6053C14.3681 23.4103 14.9106 23.9347 15.6722 23.9347C16.0554 23.9347 16.4063 23.8395 16.7151 23.5799L16.444 23.1719C16.2307 23.3416 15.9592 23.4368 15.7039 23.4368C15.3474 23.4368 15.0228 23.2725 14.943 22.8167H16.832C16.8374 22.7482 16.843 22.6791 16.843 22.6051C16.8374 21.8158 16.347 21.2757 15.6349 21.2757L15.6352 21.2758ZM22.3138 22.6051C22.3138 22.1601 22.6068 21.7946 23.0856 21.7946C23.5432 21.7946 23.8519 22.1444 23.8519 22.6051C23.8519 23.0658 23.5432 23.4156 23.0856 23.4156C22.6068 23.4156 22.3137 23.0501 22.3137 22.6051H22.3138ZM24.3733 22.6051V21.3397H23.8204V21.6482C23.6444 21.4202 23.3788 21.2772 23.0169 21.2772C22.3039 21.2772 21.7444 21.8337 21.7444 22.6066C21.7444 23.3796 22.3036 23.9361 23.0169 23.9361C23.3788 23.9361 23.6444 23.7929 23.8204 23.5651V23.8725H24.3735V22.606L24.3733 22.6051ZM19.1898 22.6051C19.1898 23.3731 19.7271 23.9345 20.547 23.9345C20.9302 23.9345 21.1854 23.8497 21.4615 23.6327L21.1958 23.1877C20.9881 23.3362 20.77 23.4156 20.5293 23.4156C20.0877 23.4102 19.763 23.0925 19.763 22.6051C19.763 22.1177 20.0877 21.8001 20.5293 21.7946C20.7694 21.7946 20.9875 21.874 21.1958 22.0225L21.4615 21.5775C21.185 21.3605 20.9297 21.2757 20.547 21.2757C19.7271 21.2757 19.1898 21.837 19.1898 22.6051ZM26.3214 21.2757C26.0022 21.2757 25.7944 21.4242 25.6507 21.6466V21.3397H25.1024V23.8711H25.6563V22.4521C25.6563 22.0332 25.8371 21.8004 26.1988 21.8004C26.3172 21.7987 26.4348 21.8204 26.5447 21.8641L26.7152 21.3453C26.5928 21.2973 26.4331 21.2762 26.3211 21.2762L26.3214 21.2757ZM11.4931 21.541C11.227 21.3664 10.8603 21.2762 10.4557 21.2762C9.81123 21.2762 9.3963 21.5836 9.3963 22.0865C9.3963 22.4993 9.70522 22.7539 10.2741 22.8334L10.5354 22.8704C10.8387 22.9128 10.9819 22.9923 10.9819 23.1352C10.9819 23.331 10.7804 23.4426 10.4021 23.4426C10.0189 23.4426 9.74242 23.3208 9.55595 23.1778L9.29601 23.6071C9.59935 23.8295 9.98251 23.9356 10.3974 23.9356C11.1321 23.9356 11.5579 23.5913 11.5579 23.1093C11.5579 22.6643 11.2228 22.4316 10.6692 22.3521L10.4085 22.3145C10.169 22.2837 9.97709 22.2357 9.97709 22.066C9.97709 21.8809 10.158 21.7696 10.4615 21.7696C10.7862 21.7696 11.1005 21.8914 11.2546 21.9866L11.4941 21.5416L11.4931 21.541ZM18.631 21.2766C18.3119 21.2766 18.104 21.4251 17.961 21.6476V21.3397H17.4127V23.8711H17.9659V22.4521C17.9659 22.0332 18.1468 21.8004 18.5084 21.8004C18.6269 21.7987 18.7444 21.8204 18.8544 21.8641L19.0249 21.3453C18.9025 21.2973 18.7428 21.2762 18.6307 21.2762L18.631 21.2766ZM13.9104 21.3397H13.0058V20.5717H12.4465V21.3397H11.9306V21.8428H12.4465V22.9977C12.4465 23.585 12.6756 23.9348 13.33 23.9348C13.5701 23.9348 13.8467 23.8608 14.0221 23.7391L13.8623 23.2677C13.6972 23.3629 13.5164 23.4109 13.3725 23.4109C13.096 23.4109 13.0058 23.2412 13.0058 22.9872V21.8433H13.9104V21.3397ZM5.63972 23.8717V22.283C5.63972 21.6847 5.25656 21.2822 4.63888 21.2768C4.31416 21.2714 3.9792 21.3719 3.74469 21.7272C3.56923 21.4464 3.29271 21.2768 2.90397 21.2768C2.63225 21.2768 2.36674 21.3562 2.15888 21.6527V21.3397H1.60522V23.8711H2.16322V22.4675C2.16322 22.0281 2.40812 21.7946 2.78632 21.7946C3.15367 21.7946 3.33952 22.0329 3.33952 22.462V23.8708H3.89876V22.4672C3.89876 22.0278 4.15404 21.7943 4.52124 21.7943C4.89897 21.7943 5.07924 22.0326 5.07924 22.4617V23.8705L5.63972 23.8717Z" fill="#231F20"></path> <path d="M30.7046 15.4522V15.082H30.6077L30.4957 15.3361L30.3842 15.082H30.287V15.4522H30.3559V15.1733L30.4606 15.4139H30.5319L30.6367 15.1727V15.4522H30.7049H30.7046ZM30.09 15.4522V15.1454H30.214V15.083H29.8972V15.1454H30.0212V15.4522H30.0894H30.09Z" fill="#F79410"></path> <path d="M19.6939 17.0392H11.3105V2.04688H19.694L19.6939 17.0392Z" fill="#FF5F00"></path> <path d="M11.842 9.54258C11.842 6.5014 13.273 3.7923 15.5012 2.04643C13.8145 0.72296 11.7284 0.00466463 9.5804 0.00782287C4.28916 0.00782287 0 4.27661 0 9.54258C0 14.8085 4.28916 19.0773 9.5804 19.0773C11.7284 19.0805 13.8147 18.3622 15.5014 17.0387C13.2733 15.2932 11.842 12.5839 11.842 9.54258Z" fill="#EB001B"></path> <path d="M31.0039 9.54356C31.0039 14.8095 26.7147 19.0783 21.4235 19.0783C19.2752 19.0814 17.1888 18.3632 15.5017 17.0397C17.7306 15.2938 19.1616 12.5849 19.1616 9.54356C19.1616 6.50222 17.7306 3.79327 15.5017 2.04741C17.1887 0.723976 19.2751 0.00569655 21.4233 0.00879907C26.7146 0.00879907 31.0037 4.27759 31.0037 9.54356" fill="#F79E1B"></path> </g> <defs> <clipPath id="clip0"> <rect width="31" height="24" fill="white" transform="translate(0 0.00878906)"></rect> </clipPath> </defs> </svg> 