<?xml version="1.0" encoding="UTF-8"?> <svg xmlns="http://www.w3.org/2000/svg" width="52" height="34" viewBox="0 0 52 34" fill="none"> <path d="M19.5468 23.0251L21.7707 10.105H25.3279L23.1023 23.0251H19.5468ZM35.9541 10.3835C35.2495 10.1217 34.1451 9.84082 32.766 9.84082C29.251 9.84082 26.7752 11.5932 26.754 14.1047C26.7342 15.9612 28.5216 16.9969 29.8709 17.6149C31.2556 18.2484 31.721 18.6521 31.7144 19.2176C31.7055 20.0837 30.6086 20.4791 29.5861 20.4791C28.1624 20.4791 27.406 20.2833 26.2378 19.8011L25.7792 19.5958L25.2801 22.4881C26.111 22.8489 27.6473 23.1612 29.2426 23.1774C32.982 23.1774 35.4094 21.4451 35.437 18.763C35.4503 17.2932 34.5026 16.1748 32.4503 15.2526C31.207 14.6549 30.4455 14.2561 30.4536 13.6509C30.4536 13.1138 31.0981 12.5396 32.4909 12.5396C33.654 12.5217 34.4968 12.7728 35.1533 13.0346L35.472 13.1837L35.9541 10.3835ZM45.1081 10.1048H42.3594C41.508 10.1048 40.8706 10.3348 40.4968 11.1762L35.2138 23.0166H38.9492C38.9492 23.0166 39.5598 21.4246 39.6979 21.075C40.1061 21.075 43.7349 21.0805 44.2536 21.0805C44.36 21.5329 44.6864 23.0166 44.6864 23.0166H47.9872L45.1081 10.1044V10.1048ZM40.747 18.4478C41.0412 17.7034 42.1643 14.836 42.1643 14.836C42.1434 14.8704 42.4564 14.088 42.6359 13.6029L42.8763 14.7168C42.8763 14.7168 43.5574 17.8009 43.6998 18.4476H40.747V18.4478ZM16.527 10.1048L13.0444 18.9157L12.6734 17.1252C12.025 15.0612 10.005 12.8249 7.74683 11.7053L10.9313 23.0045L14.695 23.0003L20.2952 10.1046L16.527 10.1046" fill="#0E4595"></path> <path d="M9.79472 10.1045H4.05865L4.01318 10.3733C8.47578 11.4428 11.4285 14.0273 12.6545 17.133L11.4073 11.1957C11.192 10.3775 10.5675 10.1333 9.79485 10.1048" fill="#F2AE14"></path> </svg> 